<?xml version="1.0" standalone="no"?>
<!DOCTYPE svg PUBLIC "-//W3C//DTD SVG 20010904//EN"
 "http://www.w3.org/TR/2001/REC-SVG-20010904/DTD/svg10.dtd">
<svg version="1.0" xmlns="http://www.w3.org/2000/svg"
 width="410.000000pt" height="319.000000pt" viewBox="0 0 410.000000 319.000000"
 preserveAspectRatio="xMidYMid meet">

<g transform="translate(0.000000,319.000000) scale(0.100000,-0.100000)"
fill="#000000" stroke="none">
<path d="M0 1595 l0 -1595 2050 0 2050 0 0 1595 0 1595 -2050 0 -2050 0 0
-1595z m2375 1541 c144 -34 220 -59 335 -113 344 -160 652 -481 776 -810 36
-95 15 -75 -37 35 -205 431 -604 737 -1103 844 -136 29 -426 32 -561 5 -188
-37 -393 -119 -541 -215 -219 -143 -435 -392 -548 -634 -70 -148 -75 -135 51
-143 59 -4 180 -5 268 -2 l160 5 20 28 c126 173 242 276 400 354 136 67 231
91 382 97 151 7 257 -8 381 -52 120 -43 225 -104 318 -183 72 -61 180 -190
169 -201 -4 -3 -42 33 -85 81 -141 153 -292 244 -488 294 -89 24 -110 25 -252
21 -217 -7 -339 -45 -501 -155 -93 -63 -284 -260 -268 -277 3 -2 117 0 254 5
138 6 381 14 540 20 160 5 347 13 418 16 93 5 127 4 127 -5 0 -6 -3 -11 -7
-11 -5 0 -114 -9 -243 -20 -129 -10 -341 -26 -470 -35 -129 -8 -363 -24 -520
-35 -429 -30 -543 -34 -658 -21 -164 18 -236 59 -263 152 -11 34 -10 46 7 86
18 44 87 113 100 100 3 -3 -8 -25 -24 -49 -41 -57 -47 -88 -28 -127 13 -25 60
-61 79 -61 2 0 21 40 41 88 203 491 665 847 1215 937 138 23 417 13 556 -19z
m-325 -196 c0 -11 -7 -20 -15 -20 -12 0 -15 -13 -15 -55 0 -48 -2 -55 -20 -55
-18 0 -20 7 -20 55 0 48 -2 55 -20 55 -30 0 -24 28 8 33 67 10 82 8 82 -13z
m174 -6 c3 -9 6 -26 6 -39 0 -38 15 -37 33 0 11 23 24 35 37 35 26 0 26 -3
-15 -77 -52 -92 -77 -83 -91 35 -5 52 -4 62 9 62 8 0 18 -7 21 -16z m-339 -14
c0 -10 -8 -14 -23 -12 -29 3 -25 -21 4 -27 49 -9 62 -63 20 -82 -31 -14 -76
-4 -76 17 0 13 7 15 30 11 42 -9 40 16 -2 28 -36 11 -49 45 -27 71 16 20 74
15 74 -6z m-147 -18 c2 -7 -8 -16 -23 -22 -32 -12 -25 -29 10 -22 31 5 36 -23
5 -31 -33 -9 -24 -30 10 -23 25 4 30 2 30 -13 0 -17 -34 -31 -75 -31 -11 0
-45 97 -45 127 0 10 57 33 74 29 6 -1 12 -8 14 -14z m730 -22 c46 -43 13 -130
-50 -130 -37 0 -78 40 -78 76 0 63 81 97 128 54z m-860 -45 l2 -30 -20 24
c-25 29 -26 44 -2 39 11 -2 18 -14 20 -33z m980 -23 l3 -32 30 17 c21 12 32
14 40 6 8 -8 -1 -19 -30 -39 -22 -16 -45 -39 -51 -52 -10 -23 -36 -26 -34 -4
1 7 2 42 3 78 1 56 3 65 19 62 11 -2 18 -14 20 -36z m-1069 9 c21 -13 4 -31
-29 -31 -23 0 -31 -5 -36 -25 -12 -48 43 -76 68 -35 15 24 38 26 38 3 0 -55
-92 -74 -129 -27 -24 30 -26 43 -10 78 17 37 67 56 98 37z m1251 -95 c-1 -34
-25 -127 -33 -126 -4 0 -11 0 -17 0 -5 0 -10 9 -10 20 0 24 -29 41 -57 34 -44
-12 -30 16 28 59 63 47 89 51 89 13z m-1490 -38 c0 -6 -7 -20 -17 -30 -18 -20
-10 -39 9 -20 16 16 38 15 38 -2 0 -7 -7 -19 -15 -26 -24 -20 -6 -33 22 -14
21 13 27 14 34 3 6 -10 1 -20 -14 -32 -49 -39 -50 -39 -96 21 l-44 56 32 28
c33 30 51 35 51 16z m1619 -43 c26 -13 41 -33 41 -56 0 -17 -29 -9 -40 12 -8
14 -19 19 -38 17 -23 -3 -27 -8 -27 -37 0 -20 6 -36 14 -39 9 -3 11 1 7 16
-10 30 7 34 39 8 33 -27 29 -50 -10 -60 -84 -21 -132 102 -55 141 32 16 35 16
69 -2z m-1719 -75 c11 -11 20 -26 20 -34 0 -8 12 -17 26 -20 38 -10 23 -32
-20 -28 -34 3 -48 -9 -26 -23 14 -9 12 -35 -3 -35 -7 0 -34 22 -60 48 l-48 49
36 31 c42 38 48 39 75 12z m1890 -97 c0 -18 -25 -17 -40 2 -7 8 -17 12 -22 9
-5 -3 -3 -13 6 -23 12 -13 13 -20 4 -29 -9 -9 -16 -8 -30 5 -25 22 -34 9 -14
-21 25 -39 -1 -44 -38 -7 l-31 32 53 51 53 51 30 -29 c16 -15 29 -34 29 -41z
m-1985 -47 c39 -35 47 -47 38 -57 -9 -9 -23 -3 -62 31 -49 40 -65 70 -38 70 6
0 35 -20 62 -44z m2060 -49 c24 -44 15 -67 -33 -82 -18 -5 -35 -17 -38 -27 -3
-10 -10 -18 -15 -18 -16 0 -21 27 -9 50 15 28 5 38 -21 22 -31 -19 -39 14 -8
36 13 9 37 27 54 39 38 28 45 25 70 -20z m-2154 -54 l41 -27 18 25 c15 18 22
21 31 12 10 -10 1 -30 -37 -82 -3 -3 -41 20 -117 70 -11 8 -1 29 14 29 5 0 28
-12 50 -27z m494 -403 c7 -22 4 -45 -36 -294 -32 -197 -37 -281 -16 -273 6 3
19 8 28 12 10 4 19 0 22 -9 9 -23 -62 -67 -116 -73 -39 -5 -47 -2 -63 20 l-19
25 -28 -20 c-16 -12 -48 -23 -71 -25 -37 -5 -48 -1 -77 25 l-34 30 0 99 c0
111 18 158 76 208 30 25 38 27 108 23 l76 -3 7 45 c3 25 7 82 7 127 l1 81 38
10 c62 17 90 14 97 -8z m916 -13 c30 -20 34 -28 37 -75 3 -51 2 -54 -49 -107
-49 -52 -51 -56 -36 -73 9 -10 30 -44 46 -77 l30 -59 62 -13 c75 -15 83 -22
70 -57 l-11 -27 -39 21 c-60 30 -77 27 -84 -15 -13 -79 -86 -135 -176 -135
-61 0 -107 33 -117 84 -9 52 16 90 81 121 l56 26 -35 47 c-34 46 -35 47 -85
44 -64 -5 -110 11 -147 49 -26 27 -29 37 -29 97 0 65 1 67 25 67 24 0 25 -2
22 -51 -4 -67 23 -103 84 -111 49 -6 60 6 41 44 -62 121 11 223 158 223 48 0
70 -5 96 -23z m-2110 -4 c3 -43 -4 -124 -17 -193 -21 -114 -21 -115 26 -84 25
17 59 29 89 32 43 4 53 1 75 -21 34 -34 34 -76 1 -116 -15 -16 -42 -36 -61
-43 -39 -14 -39 -21 0 -98 22 -44 33 -50 67 -36 10 5 19 1 22 -8 8 -21 -57
-65 -106 -73 -54 -8 -91 34 -112 132 -9 41 -14 78 -11 84 4 5 19 12 35 16 36
8 71 40 71 66 0 39 -54 34 -109 -12 -19 -16 -28 -40 -42 -112 -10 -51 -19
-106 -19 -123 0 -27 -4 -32 -31 -38 -17 -3 -47 -6 -65 -6 -28 0 -34 4 -34 21
0 11 18 112 41 222 22 111 44 242 47 292 l7 89 40 12 c59 18 85 17 86 -3z
m2521 -130 l-3 -73 41 0 c27 0 40 -4 40 -14 0 -20 -27 -39 -46 -32 -42 16 -50
0 -69 -128 -21 -142 -18 -160 20 -146 62 24 62 -9 1 -45 -64 -37 -105 -42
-139 -15 -34 27 -35 55 -7 205 25 134 25 125 -5 125 -20 0 -25 5 -25 25 0 21
5 25 30 25 29 0 29 1 32 63 3 61 4 62 38 74 19 7 49 11 65 10 l30 -2 -3 -72z
m423 -73 c9 -10 20 -40 23 -66 l5 -46 43 5 c30 3 44 0 48 -9 6 -16 -15 -29
-61 -38 -25 -6 -33 -14 -39 -39 -7 -33 -44 -110 -66 -138 -43 -53 -131 -74
-188 -44 -107 56 -79 298 42 361 29 15 96 29 154 33 11 0 29 -8 39 -19z m429
4 c9 -8 16 -28 16 -44 0 -22 -8 -34 -36 -51 l-37 -22 -18 21 c-19 25 -41 28
-57 9 -13 -15 -42 -177 -42 -233 0 -48 -8 -54 -81 -54 -48 0 -49 1 -49 30 0
16 9 76 20 132 24 125 25 147 4 176 -9 13 -14 25 -12 27 2 3 37 8 77 11 68 7
72 6 78 -15 7 -26 8 -26 41 -2 50 34 74 38 96 15z m346 1 c50 -26 64 -79 35
-135 -18 -35 -64 -64 -137 -85 l-57 -16 11 -30 c6 -17 21 -35 34 -41 22 -10
51 -3 126 30 5 2 8 -5 8 -15 0 -11 -18 -30 -42 -46 -106 -68 -209 -56 -244 29
-19 44 -18 146 2 192 43 104 175 163 264 117z m-2060 -19 c0 -20 -51 -373 -60
-411 -18 -81 -48 -133 -89 -155 l-36 -19 30 -1 c17 0 89 5 160 10 876 67 1362
90 1486 71 176 -28 259 -116 219 -235 -11 -36 -86 -110 -101 -101 -4 3 8 28
27 56 44 66 45 109 5 150 -43 43 -65 38 -86 -18 -118 -314 -384 -617 -694
-792 -530 -298 -1211 -252 -1707 117 -159 118 -275 245 -375 409 -58 95 -123
232 -115 241 8 7 6 11 66 -104 71 -138 157 -250 290 -377 602 -577 1518 -579
2118 -3 143 136 278 339 352 525 l19 49 -37 6 c-49 8 -441 8 -481 0 -25 -5
-41 -20 -72 -65 -55 -81 -162 -186 -247 -243 -384 -255 -859 -229 -1203 67
-78 67 -136 134 -125 144 3 3 45 -32 93 -78 128 -123 259 -197 433 -245 51
-14 101 -18 230 -18 151 0 172 2 254 28 190 58 362 171 476 312 61 76 70 94
48 94 -79 0 -1183 -41 -1242 -46 -65 -6 -78 -4 -74 7 2 8 20 15 39 17 19 1 54
5 79 8 l45 6 -30 15 c-74 38 -83 68 -30 109 42 32 57 28 87 -25 13 -23 28 -41
34 -41 17 0 41 66 49 138 4 34 5 62 2 62 -3 0 -25 -11 -48 -25 -29 -16 -59
-25 -90 -25 -72 0 -85 30 -64 153 8 45 16 111 19 147 4 72 10 77 88 79 27 1
38 -4 42 -16 3 -10 -3 -73 -14 -141 -17 -109 -18 -152 -4 -152 3 0 20 6 39 14
37 16 33 3 58 196 l12 95 35 6 c43 8 90 10 90 5z m-1146 -27 c28 -8 41 -8 46
0 5 9 20 9 59 0 40 -8 51 -14 47 -26 -13 -33 -36 -188 -36 -240 0 -45 3 -54
15 -49 8 3 21 9 29 12 7 3 16 -2 19 -10 8 -21 -63 -67 -114 -73 -29 -4 -41 -1
-58 16 l-22 22 -33 -20 c-71 -44 -146 -16 -167 62 -13 49 -5 150 15 199 21 49
55 89 90 104 38 16 60 17 110 3z m445 -884 c52 -60 36 -133 -33 -151 -30 -7
-77 16 -106 53 l-21 28 58 52 c32 29 61 52 64 53 4 0 21 -16 38 -35z m1685 0
c17 -14 37 -30 44 -36 34 -28 -12 -104 -60 -97 -30 4 -28 20 6 36 35 18 35 44
-1 40 -24 -3 -28 0 -26 20 4 31 -25 29 -37 -4 -11 -27 -33 -28 -38 -1 -4 20
41 67 64 67 9 0 30 -11 48 -25z m-163 -125 c22 -12 24 -37 7 -75 -15 -32 -4
-43 22 -20 18 16 51 15 50 -2 -1 -4 -23 -25 -50 -46 -48 -37 -49 -37 -60 -16
-12 21 -10 61 5 107 11 32 -23 30 -35 -3 -12 -33 -40 -33 -40 -1 0 15 11 33
26 45 30 23 46 26 75 11z m-1351 -29 c27 -22 32 -32 24 -41 -9 -9 -18 -8 -37
5 -31 20 -47 3 -17 -18 13 -9 18 -20 14 -31 -8 -20 -13 -20 -35 0 -31 28 -44
5 -14 -26 21 -22 23 -29 13 -38 -10 -8 -23 -3 -53 22 l-39 33 45 61 c24 34 49
62 54 62 6 0 26 -13 45 -29z m140 -86 c16 -8 34 -24 40 -35 23 -43 -18 -88
-68 -75 -19 5 -30 1 -41 -14 -11 -15 -20 -18 -31 -11 -12 7 -9 20 20 79 19 39
38 71 42 71 5 0 22 -7 38 -15z m1038 -1 c12 -8 29 -29 38 -46 41 -79 -46 -146
-109 -83 -44 45 -41 116 5 135 33 13 41 12 66 -6z m-882 -93 c-16 -66 -18 -99
-7 -106 19 -11 39 13 51 65 11 47 30 64 45 40 12 -19 -24 -119 -49 -135 -30
-20 -72 -11 -92 20 -15 24 -11 60 16 131 13 34 44 21 36 -15z m698 13 c23 -23
19 -52 -11 -80 -31 -29 -25 -40 16 -26 31 11 41 7 41 -14 0 -17 -109 -49 -122
-36 -16 16 1 70 28 91 13 10 24 24 24 30 0 16 -36 13 -50 -4 -16 -19 -40 -19
-40 -1 0 20 48 56 76 56 12 0 30 -7 38 -16z m-491 -31 c2 -5 0 -43 -6 -85 -8
-68 -12 -78 -29 -78 -19 0 -20 4 -13 78 8 85 10 92 30 92 8 0 16 -3 18 -7z
m177 -18 c17 -20 2 -38 -26 -31 -35 9 -30 -13 6 -26 31 -10 48 -44 37 -73 -13
-33 -112 -29 -112 5 0 11 10 14 38 12 20 -2 37 1 37 7 0 5 -17 18 -37 28 -42
20 -53 51 -28 77 20 20 68 21 85 1z"/>
<path d="M2390 2856 c-6 -8 -10 -25 -8 -38 4 -30 46 -38 65 -12 17 23 16 29
-3 48 -19 20 -38 20 -54 2z"/>
<path d="M2710 2679 c0 -5 5 -7 10 -4 6 3 10 8 10 11 0 2 -4 4 -10 4 -5 0 -10
-5 -10 -11z"/>
<path d="M1124 2539 c-3 -6 -2 -15 4 -21 13 -13 32 -2 32 18 0 16 -26 19 -36
3z"/>
<path d="M3092 2354 c1 -9 9 -19 16 -22 9 -3 13 2 10 14 -1 9 -9 19 -16 22 -9
3 -13 -2 -10 -14z"/>
<path d="M1243 1611 c-28 -30 -43 -88 -43 -164 0 -80 6 -97 34 -97 43 0 53 20
72 142 10 65 16 120 13 122 -2 2 -16 7 -30 11 -20 5 -32 1 -46 -14z"/>
<path d="M2283 1880 c-40 -16 -46 -44 -22 -96 12 -25 29 -48 36 -51 17 -7 78
52 87 83 13 43 -52 84 -101 64z"/>
<path d="M2250 1459 c-34 -14 -60 -39 -60 -59 0 -21 31 -50 53 -50 25 0 58 50
55 84 -3 34 -13 39 -48 25z"/>
<path d="M3106 1651 c-40 -44 -60 -188 -33 -241 28 -57 93 -22 127 67 l20 52
-36 7 c-48 9 -68 41 -59 94 8 45 5 48 -19 21z"/>
<path d="M3888 1653 c-16 -18 -38 -84 -38 -115 0 -47 82 2 96 56 15 62 -22 99
-58 59z"/>
<path d="M756 1601 c-25 -28 -46 -105 -46 -171 0 -69 15 -94 52 -85 24 6 26
12 38 101 6 52 16 109 21 126 6 23 5 34 -4 40 -20 13 -43 9 -61 -11z"/>
<path d="M1174 729 c-27 -28 -27 -29 -9 -49 35 -39 84 -9 72 42 -10 38 -31 40
-63 7z"/>
<path d="M1530 480 c0 -15 5 -20 18 -18 9 2 17 10 17 18 0 8 -8 16 -17 18 -13
2 -18 -3 -18 -18z"/>
<path d="M2543 494 c-10 -26 10 -69 33 -72 27 -4 38 22 22 51 -19 38 -45 47
-55 21z"/>
</g>
</svg>
